PathFileType  4	(X/Y/Z) C:\Users\antoi\Documents\MyRepositories\mobilecap\ResultsAnalysis
DataRate	CameraRate	NumFrames	NumMarkers	Units	OrigDataRate	OrigDataStartFrame	OrigNumFrames
100.0	100.0	5	51	mm	100.0	18	138
Frame#	Time	r_knee			r_shank_antsup			r_ankle			r_calc			r_5meta			r_toe			L_knee			L_shank_antsup			L_ankle			L_calc			L_5meta			L_toe			r_sh2			r_sh3			r_sh4			L_sh2			L_sh3			r_thigh1			r_thigh2			r_thigh3			r_thigh4			r_thigh5			L_thigh1			L_thigh2			L_thigh3			L_thigh4			r.ASIS			r.PSIS			L.ASIS			L.PSIS			C7			R_Shoulder			L_Shoulder			R_Sternum			L_Sternum			R_humerus			R_elbow_med			R_elbow_lat			R_forearm			R_wrist_radius			R_wrist_ulna			L_humerus			L_elbow_med			L_elbow_lat			L_forearm			L_wrist_radius			L_wrist_ulna			R_HJC			L_HJC			R_HJC_reg			L_HJC_reg			
		X1	Y1	Z1	X2	Y2	Z2	X3	Y3	Z3	X4	Y4	Z4	X5	Y5	Z5	X6	Y6	Z6	X7	Y7	Z7	X8	Y8	Z8	X9	Y9	Z9	X10	Y10	Z10	X11	Y11	Z11	X12	Y12	Z12	X13	Y13	Z13	X14	Y14	Z14	X15	Y15	Z15	X16	Y16	Z16	X17	Y17	Z17	X18	Y18	Z18	X19	Y19	Z19	X20	Y20	Z20	X21	Y21	Z21	X22	Y22	Z22	X23	Y23	Z23	X24	Y24	Z24	X25	Y25	Z25	X26	Y26	Z26	X27	Y27	Z27	X28	Y28	Z28	X29	Y29	Z29	X30	Y30	Z30	X31	Y31	Z31	X32	Y32	Z32	X33	Y33	Z33	X34	Y34	Z34	X35	Y35	Z35	X36	Y36	Z36	X37	Y37	Z37	X38	Y38	Z38	X39	Y39	Z39	X40	Y40	Z40	X41	Y41	Z41	X42	Y42	Z42	X43	Y43	Z43	X44	Y44	Z44	X45	Y45	Z45	X46	Y46	Z46	X47	Y47	Z47	X48	Y48	Z48	X49	Y49	Z49	X50	Y50	Z50	X51	Y51	Z51	

18	0.17000000	345.65520	491.27677	-41.72370	384.67335	424.82686	-68.48319	314.87178	91.30494	-95.84645	243.93129	68.38223	-131.72906	418.25061	40.57405	-67.43584	465.56786	68.12075	-125.33064	308.33723	485.74242	-330.94053	273.24425	397.91615	-333.12962	-3.79125	261.72685	-283.06471	-59.00841	300.57725	-224.70521	-15.46397	132.69289	-315.44995	43.76625	113.30432	-276.00627	367.11252	310.06661	-54.46839	310.28201	432.97501	-27.01601	291.90467	322.79832	-34.81024	227.81350	474.38132	-324.79534	128.52422	403.43047	-320.68080	358.50912	814.38231	8.05580	375.81505	702.15912	-7.37545	325.42517	670.60184	24.99236	252.58318	795.87893	37.23830	265.72080	681.50351	20.62939	281.52654	746.69690	-353.80126	321.69518	615.13501	-346.41558	189.25475	718.85084	-286.92937	231.55152	586.65358	-287.17156	348.45516	969.82334	-36.33632	148.07813	1003.02711	-88.15503	323.92181	937.27145	-285.36436	129.19549	996.75393	-187.79338	137.13552	1407.37078	-163.27651	262.91699	1376.46311	1.14216	198.92242	1367.67195	-352.48539	281.26513	1377.06124	-160.96739	276.79654	1377.98480	-202.25811	286.76560	1242.88777	61.48868	223.06706	1029.78599	44.01592	252.38251	1047.88763	106.71797	340.61563	938.43739	114.53909	396.74490	813.44163	112.89402	374.23178	802.47674	137.89190	230.05971	1254.10671	-409.78656	241.04293	1015.71325	-352.24710	256.98365	1041.69597	-425.47087	359.43939	983.83371	-414.10671	465.22076	864.96293	-404.27485	447.19231	852.05754	-430.06682	270.40510	888.70383	-40.73287	243.15304	868.49814	-244.40009	279.99584	886.34967	-53.60914	249.04563	876.06838	-216.93221	
19	0.18000000	349.07397	491.28363	-41.59317	387.27851	424.40643	-68.13393	314.95039	91.46328	-95.88273	243.94240	68.22528	-131.72159	418.28987	40.54361	-67.37210	465.61885	67.99380	-125.28184	330.14714	489.81838	-330.91414	296.79217	401.25132	-332.99617	20.84892	263.36565	-283.54350	-35.86971	300.42824	-224.86336	11.70267	135.02759	-318.10407	70.84287	116.02852	-278.40146	368.67708	309.83547	-54.22378	312.81609	433.21199	-27.05064	293.41401	323.25983	-34.94618	250.40754	477.31955	-325.80360	151.90029	405.31854	-321.72583	367.04818	814.49114	8.11931	382.51082	701.88627	-7.46495	331.92111	670.98188	24.85229	260.73727	797.14078	37.50176	272.19745	682.70602	20.61162	296.04357	749.70060	-353.53444	339.64461	619.22760	-346.29168	204.05276	719.56818	-286.97599	250.23151	588.32524	-287.11051	358.22888	970.97801	-35.55837	157.95256	1004.45685	-87.74163	334.73715	939.49853	-284.93572	139.38787	998.52406	-187.43378	147.41270	1409.15857	-162.29200	273.72372	1377.82604	1.60653	208.25434	1369.23682	-351.77407	291.43876	1378.54410	-160.51895	286.89545	1379.50464	-201.84327	299.25257	1244.37586	61.31567	236.26339	1030.94736	45.45042	267.82419	1049.04500	107.05988	356.21802	939.99371	112.82346	412.57165	814.96456	109.86144	390.54756	804.14585	135.61537	237.81634	1254.97610	-408.95013	245.56755	1016.78087	-349.96940	261.38755	1042.01954	-423.41086	361.41287	979.86160	-413.74883	461.55511	855.88623	-405.89050	442.57177	843.98280	-431.49365	280.25793	889.87324	-40.53265	253.64499	870.57307	-244.37016	289.87993	887.68518	-53.36209	259.42941	877.95484	-216.88556	
20	0.19000000	352.24483	491.33170	-41.53684	389.67823	424.05202	-67.86378	314.99849	91.66100	-95.92048	243.96983	67.88582	-131.67272	418.31930	40.54432	-67.29461	465.67629	67.89415	-125.22759	351.70537	493.98779	-330.70525	320.09126	404.69068	-332.74527	45.87306	263.75091	-284.01814	-12.25637	298.72643	-225.01882	39.57393	136.06666	-320.54072	98.75393	117.66809	-280.74387	370.09013	309.67425	-54.03368	315.13998	433.49467	-27.15523	294.77675	323.75708	-35.13190	272.43761	480.12483	-326.52077	175.03012	406.63493	-322.45579	375.44974	814.51483	8.08390	389.04345	701.56638	-7.69366	338.14223	671.35091	24.62731	268.74361	798.38338	37.68681	278.50802	683.90993	20.44072	310.69038	752.81717	-353.26175	357.62215	623.52789	-346.00238	218.81841	720.51324	-287.33124	268.76215	590.23047	-287.30626	367.88571	972.11935	-34.77332	167.77564	1005.90121	-87.48243	345.43706	941.94288	-284.42696	149.54136	1000.40682	-187.22702	157.65803	1410.96791	-161.40844	284.34256	1379.34392	2.04192	217.68049	1370.88683	-351.08607	301.58420	1380.07390	-160.08773	296.95276	1381.09488	-201.46662	311.44009	1246.05112	61.17666	249.41219	1032.27250	46.63192	283.12030	1050.35303	107.11511	371.73421	941.77151	110.88752	428.35199	816.78867	106.73108	406.79728	806.11018	133.17876	245.64457	1255.98012	-408.11542	250.06296	1018.10054	-347.49138	265.62537	1042.50161	-421.25388	362.90373	976.06763	-413.43176	456.97053	847.18994	-407.69205	437.06894	836.29211	-433.02583	289.96409	891.04409	-40.43861	264.10819	872.80441	-244.46900	299.65921	889.04023	-53.18204	269.73795	880.02440	-216.85638	
21	0.20000000	355.19052	491.41551	-41.51793	391.92693	423.77319	-67.65419	315.01617	91.89614	-95.95473	244.02640	67.39012	-131.58004	418.33758	40.56821	-67.19965	465.73981	67.81731	-125.16213	372.90932	498.21422	-330.38071	343.06173	408.21587	-332.38912	71.21824	262.94733	-284.53033	11.73381	295.51299	-225.26255	68.30128	135.86526	-322.74674	127.53389	118.31355	-282.88142	371.41692	309.58644	-53.88555	317.31811	433.82156	-27.27072	296.07566	324.27047	-35.30768	293.87197	482.79617	-326.88035	197.87099	407.43255	-322.86801	383.69731	814.41886	7.99410	395.43407	701.19129	-8.00417	344.01104	671.70027	24.39892	276.50174	799.62997	37.85818	284.63352	685.10128	20.13238	325.47163	756.01755	-353.01643	375.59398	627.98703	-345.61816	233.55712	721.63040	-288.05145	287.16143	592.31758	-287.77835	377.40364	973.20652	-33.96981	177.54426	1007.31597	-87.40921	356.00532	944.52781	-283.82388	159.65561	1002.32424	-187.20470	167.88218	1412.75298	-160.61829	294.80726	1380.99606	2.45172	227.20088	1372.59268	-350.41435	311.71133	1381.61913	-159.67317	306.96817	1382.72879	-201.12408	323.33681	1247.88292	61.08717	262.52889	1033.72998	47.50937	298.12694	1051.81899	106.94383	387.07398	943.76374	108.73293	444.06966	818.92895	103.51762	422.96705	808.37752	130.63585	253.60576	1257.09498	-407.27627	254.49207	1019.65858	-344.86101	269.68272	1043.14521	-419.01287	363.92650	972.49884	-413.15287	451.50048	838.98047	-409.63718	430.73504	829.11098	-434.61963	299.50386	892.17703	-40.44215	274.54416	875.11572	-244.68411	309.30999	890.39753	-53.03446	279.95211	882.20455	-216.80903	
22	0.21000000	357.93714	491.52759	-41.50584	394.06621	423.56915	-67.47687	315.01098	92.15885	-95.98333	244.11476	66.81892	-131.46061	418.34680	40.60197	-67.08895	465.81074	67.75838	-125.08248	393.65294	502.48005	-329.97944	365.65824	411.80248	-331.93216	96.87745	260.99854	-285.10556	36.04365	290.85095	-225.66563	98.04315	134.49625	-324.71251	157.22163	118.06514	-284.67716	372.69883	309.56970	-53.76166	319.39506	434.18858	-27.36243	297.35541	324.79060	-35.44542	314.69414	485.32017	-326.82422	220.41141	407.74668	-322.98256	391.80279	814.19575	7.88159	401.69487	700.75775	-8.34795	349.48469	672.03085	24.22724	283.93659	800.88964	38.06244	290.56582	686.26702	19.71006	340.36040	759.27390	-352.82641	393.49946	632.54981	-345.19182	248.25258	722.88322	-289.15774	305.41541	594.53524	-288.50411	386.77748	974.21735	-33.14377	187.24964	1008.66430	-87.53967	366.46240	947.17084	-283.13571	169.73432	1004.20287	-187.38395	178.09089	1414.47775	-159.91334	305.14935	1382.74482	2.83730	236.79730	1374.31802	-349.75978	321.82264	1383.15584	-159.27649	316.94995	1384.37673	-200.80802	334.97184	1249.81789	61.04451	275.63266	1035.26709	48.05437	312.74789	1053.40929	106.61675	402.15913	945.94267	106.37658	459.72598	821.37780	100.24617	439.05395	810.92223	128.02321	261.73055	1258.27671	-406.43122	258.82488	1021.42020	-342.13181	273.54827	1043.94054	-416.71097	364.51058	969.19464	-412.90626	445.21024	831.34616	-411.67720	423.64367	822.54924	-436.23176	308.87941	893.24567	-40.53184	284.96962	877.43208	-244.99852	318.82540	891.73894	-52.89729	290.08298	884.41638	-216.73360	
